{"scene":0,"asset":{"generator":"ImageToStl.com","version":"2.0"},"scenes":[{"name":"Scene","nodes":[0]}],"nodes":[{"name":"Node0","children":[1]},{"name":"Node1","mesh":0,"children":[2,3,4,5,6,7,8,9,10,11,12,13,14,15]},{"name":"Node2","mesh":1},{"name":"Node3","mesh":2},{"name":"Node4","mesh":3},{"name":"Node5","mesh":4},{"name":"Node6","mesh":5},{"name":"Node7","mesh":6},{"name":"Node8","mesh":7},{"name":"Node9","mesh":8},{"name":"Node10","mesh":9},{"name":"Node11","mesh":10},{"name":"Node12","mesh":11},{"name":"Node13","mesh":12},{"name":"Node14","mesh":13},{"name":"Node15","mesh":14}],"materials":[{"name":"#A0A0A0-1","pbrMetallicRoughness":{"baseColorFactor":[0.627451,0.627451,0.627451,1.0],"metallicFactor":0.05,"roughnessFactor":0.5},"doubleSided":true},{"name":"#FF6C2E-1","pbrMetallicRoughness":{"baseColorFactor":[1.0,0.42352942,0.18431373,1.0],"metallicFactor":0.05,"roughnessFactor":0.5},"doubleSided":true},{"name":"#84ECA8-1","pbrMetallicRoughness":{"baseColorFactor":[0.52156866,0.92941177,0.65882355,1.0],"metallicFactor":0.05,"roughnessFactor":0.5},"doubleSided":true},{"name":"#A8A8A8-1","pbrMetallicRoughness":{"baseColorFactor":[0.65882355,0.65882355,0.65882355,1.0],"metallicFactor":0.05,"roughnessFactor":0.5},"doubleSided":true},{"name":"#FFCE75-1","pbrMetallicRoughness":{"baseColorFactor":[1.0,0.80784315,0.45882353,1.0],"metallicFactor":0.05,"roughnessFactor":0.5},"doubleSided":true},{"name":"#FFFFFF-1","pbrMetallicRoughness":{"baseColorFactor":[1.0,1.0,1.0,1.0],"metallicFactor":0.05,"roughnessFactor":0.5},"doubleSided":true},{"name":"#BEBEBE-1","pbrMetallicRoughness":{"baseColorFactor":[0.7490196,0.7490196,0.7490196,1.0],"metallicFactor":0.05,"roughnessFactor":0.5},"doubleSided":true},{"name":"#424242-1","pbrMetallicRoughness":{"baseColorFactor":[0.25882354,0.25882354,0.25882354,1.0],"metallicFactor":0.05,"roughnessFactor":0.5},"doubleSided":true},{"name":"#EBEBEB-1","pbrMetallicRoughness":{"baseColorFactor":[0.9254902,0.9254902,0.9254902,1.0],"metallicFactor":0.05,"roughnessFactor":0.5},"doubleSided":true},{"name":"#CAD1ED-1","pbrMetallicRoughness":{"baseColorFactor":[0.7921569,0.81960785,0.93333334,1.0],"metallicFactor":0.05,"roughnessFactor":0.5},"doubleSided":true}],"meshes":[{"name":"Mesh0","primitives":[{"indices":1,"material":4,"attributes":{"POSITION":0}}]},{"name":"Mesh0","primitives":[{"indices":3,"material":4,"attributes":{"POSITION":2}}]},{"name":"Mesh0","primitives":[{"indices":5,"material":4,"attributes":{"POSITION":4}}]},{"name":"Mesh0","primitives":[{"indices":7,"material":9,"attributes":{"POSITION":6}}]},{"name":"Mesh0","primitives":[{"indices":9,"material":4,"attributes":{"POSITION":8}}]},{"name":"Mesh0","primitives":[{"indices":11,"material":2,"attributes":{"POSITION":10}}]},{"name":"Mesh0","primitives":[{"indices":13,"material":4,"attributes":{"POSITION":12}}]},{"name":"Mesh0","primitives":[{"indices":15,"material":5,"attributes":{"POSITION":14}}]},{"name":"Mesh0","primitives":[{"indices":17,"material":6,"attributes":{"POSITION":16}}]},{"name":"Mesh0","primitives":[{"indices":19,"material":7,"attributes":{"POSITION":18}}]},{"name":"Mesh0","primitives":[{"indices":21,"material":8,"attributes":{"POSITION":20}}]},{"name":"Mesh0","primitives":[{"indices":23,"material":1,"attributes":{"POSITION":22}}]},{"name":"Mesh0","primitives":[{"indices":25,"material":0,"attributes":{"POSITION":24}}]},{"name":"Mesh0","primitives":[{"indices":27,"material":3,"attributes":{"POSITION":26}}]},{"name":"Mesh0","primitives":[{"indices":29,"material":9,"attributes":{"POSITION":28}}]}],"accessors":[{"bufferView":0,"componentType":5126,"count":10685,"type":"VEC3","min":[31.345,-16.0,-0.14],"max":[38.945,9.549147,8.86]},{"bufferView":1,"componentType":5123,"count":62463,"type":"SCALAR"},{"bufferView":2,"componentType":5126,"count":4401,"type":"VEC3","min":[34.045,9.150853,0.8150084],"max":[38.045,15.799147,6.4850087]},{"bufferView":3,"componentType":5123,"count":25236,"type":"SCALAR"},{"bufferView":4,"componentType":5126,"count":4375,"type":"VEC3","min":[32.795,4.15,0.8150084],"max":[38.045,15.799147,7.7350082]},{"bufferView":5,"componentType":5123,"count":24954,"type":"SCALAR"},{"bufferView":6,"componentType":5126,"count":5670,"type":"VEC3","min":[-38.3562,-43.5746,3.535],"max":[-29.4162,-35.4246,7.3]},{"bufferView":7,"componentType":5123,"count":34104,"type":"SCALAR"},{"bufferView":8,"componentType":5126,"count":4311,"type":"VEC3","min":[32.795,9.150853,0.8150084],"max":[38.045,15.799147,7.7350082]},{"bufferView":9,"componentType":5123,"count":25203,"type":"SCALAR"},{"bufferView":10,"componentType":5126,"count":6344,"type":"VEC3","min":[32.895,-2.0,4.1100082],"max":[38.945,21.95,9.360008]},{"bufferView":11,"componentType":5123,"count":38316,"type":"SCALAR"},{"bufferView":12,"componentType":5126,"count":1572,"type":"VEC3","min":[31.345,-15.908349,-0.14],"max":[38.745,-13.09,8.569997]},{"bufferView":13,"componentType":5123,"count":8268,"type":"SCALAR"},{"bufferView":14,"componentType":5126,"count":3866,"type":"VEC3","min":[33.495,-15.65,6.2101507],"max":[38.745,-9.35,8.50985]},{"bufferView":15,"componentType":5123,"count":23196,"type":"SCALAR"},{"bufferView":16,"componentType":5126,"count":916,"type":"VEC3","min":[32.195,-15.15,4.76],"max":[33.495,-9.85,6.76]},{"bufferView":17,"componentType":5123,"count":5496,"type":"SCALAR"},{"bufferView":18,"componentType":5126,"count":1730,"type":"VEC3","min":[33.345,-21.499222,4.085],"max":[38.945,-3.5007775,10.135]},{"bufferView":19,"componentType":5123,"count":10416,"type":"SCALAR"},{"bufferView":20,"componentType":5126,"count":12251,"type":"VEC3","min":[30.345,-20.549519,4.11],"max":[37.845,-4.450482,9.11]},{"bufferView":21,"componentType":5123,"count":73506,"type":"SCALAR"},{"bufferView":22,"componentType":5126,"count":20237,"type":"VEC3","min":[-47.945,-45.085,-1.0],"max":[47.945,45.085,24.0]},{"bufferView":23,"componentType":5123,"count":126066,"type":"SCALAR"},{"bufferView":24,"componentType":5126,"count":25648,"type":"VEC3","min":[-47.655,-44.835,-0.75],"max":[47.615,44.835,23.5]},{"bufferView":25,"componentType":5123,"count":153660,"type":"SCALAR"},{"bufferView":26,"componentType":5126,"count":12658,"type":"VEC3","min":[31.245,-1.2,4.1100082],"max":[38.245,21.15,8.560008]},{"bufferView":27,"componentType":5123,"count":75948,"type":"SCALAR"},{"bufferView":28,"componentType":5126,"count":925,"type":"VEC3","min":[-38.3562,-43.5746,3.56],"max":[-29.4162,-35.5746,7.3]},{"bufferView":29,"componentType":5123,"count":4128,"type":"SCALAR"}],"bufferViews":[{"target":34962,"buffer":0,"byteLength":128220,"byteOffset":0},{"target":34963,"buffer":0,"byteLength":124926,"byteOffset":128220},{"target":34962,"buffer":0,"byteLength":52812,"byteOffset":253148},{"target":34963,"buffer":0,"byteLength":50472,"byteOffset":305960},{"target":34962,"buffer":0,"byteLength":52500,"byteOffset":356432},{"target":34963,"buffer":0,"byteLength":49908,"byteOffset":408932},{"target":34962,"buffer":0,"byteLength":68040,"byteOffset":458840},{"target":34963,"buffer":0,"byteLength":68208,"byteOffset":526880},{"target":34962,"buffer":0,"byteLength":51732,"byteOffset":595088},{"target":34963,"buffer":0,"byteLength":50406,"byteOffset":646820},{"target":34962,"buffer":0,"byteLength":76128,"byteOffset":697228},{"target":34963,"buffer":0,"byteLength":76632,"byteOffset":773356},{"target":34962,"buffer":0,"byteLength":18864,"byteOffset":849988},{"target":34963,"buffer":0,"byteLength":16536,"byteOffset":868852},{"target":34962,"buffer":0,"byteLength":46392,"byteOffset":885388},{"target":34963,"buffer":0,"byteLength":46392,"byteOffset":931780},{"target":34962,"buffer":0,"byteLength":10992,"byteOffset":978172},{"target":34963,"buffer":0,"byteLength":10992,"byteOffset":989164},{"target":34962,"buffer":0,"byteLength":20760,"byteOffset":1000156},{"target":34963,"buffer":0,"byteLength":20832,"byteOffset":1020916},{"target":34962,"buffer":0,"byteLength":147012,"byteOffset":1041748},{"target":34963,"buffer":0,"byteLength":147012,"byteOffset":1188760},{"target":34962,"buffer":0,"byteLength":242844,"byteOffset":1335772},{"target":34963,"buffer":0,"byteLength":252132,"byteOffset":1578616},{"target":34962,"buffer":0,"byteLength":307776,"byteOffset":1830748},{"target":34963,"buffer":0,"byteLength":307320,"byteOffset":2138524},{"target":34962,"buffer":0,"byteLength":151896,"byteOffset":2445844},{"target":34963,"buffer":0,"byteLength":151896,"byteOffset":2597740},{"target":34962,"buffer":0,"byteLength":11100,"byteOffset":2749636},{"target":34963,"buffer":0,"byteLength":8256,"byteOffset":2760736}],"buffers":[{"byteLength":2768992,"uri":"data:application/octet-stream;base64,"}]}